<svg xmlns="http://www.w3.org/2000/svg" viewBox="0 0 512 393.85"><defs><style>.cls-1{fill:#f1b722;}</style></defs><title>Check-Yellow_1</title><g id="Laag_2" data-name="Laag 2"><g id="Laag_1-2" data-name="Laag 1"><path class="cls-1" d="M5.91,216.62a19,19,0,0,1,0-27.57l27.57-27.57a19,19,0,0,1,27.57,0l2,2,108.3,116.18a9.52,9.52,0,0,0,13.79,0L449,5.91h2a19,19,0,0,1,27.57,0l27.57,27.57a19,19,0,0,1,0,27.57h0L191,387.94c-3.94,3.94-7.88,5.91-13.79,5.91s-9.85-2-13.78-5.91L9.85,222.52l-3.94-5.9Z"/></g></g></svg>