<svg xmlns="http://www.w3.org/2000/svg" viewBox="0 0 264.7 27.92"><defs><style>.cls-1{fill:#f0b720;}.cls-2{fill:#fff;}</style></defs><title>Middel 3</title><g id="Laag_2" data-name="Laag 2"><g id="Laag_1-2" data-name="Laag 1"><path class="cls-1" d="M23.76,1.63H1.58A1.58,1.58,0,0,0,0,3.21V25.38A1.58,1.58,0,0,0,1.58,27H23.76a1.58,1.58,0,0,0,1.58-1.58V3.21a1.58,1.58,0,0,0-1.58-1.58ZM15.84,3.21l1.58,3.17H14.25L12.67,3.21Zm-6.34,0,1.58,3.17H7.92L6.34,3.21Zm-7.92,0H3.17L4.75,6.38H1.58ZM23.76,25.38H1.58V8H23.76Zm0-19H20.59L19,3.21h3.17l1.58,1.58ZM17.59,16c.78.39.78,1,0,1.42L9.34,21.51a.9.9,0,0,1-1.42-.88V12.71a.9.9,0,0,1,1.42-.88Zm0,0"/><path class="cls-2" d="M46.89,1.78,52.46,19.2h.1L58.21,1.78h7.62V26.67H60V20.5l.55-11.37-.1,0-6,17.56h-3.9L44.65,9.27l-.1,0,.55,11.21v6.17H39.3V1.78Z"/><path class="cls-2" d="M68.65,17.25A9.78,9.78,0,0,1,71,10.45a8.39,8.39,0,0,1,6.58-2.62,8.42,8.42,0,0,1,6.6,2.62,9.78,9.78,0,0,1,2.36,6.79v.36a9.77,9.77,0,0,1-2.36,6.8A8.39,8.39,0,0,1,77.62,27,8.45,8.45,0,0,1,71,24.41a9.77,9.77,0,0,1-2.36-6.8Zm5.78.36a7.65,7.65,0,0,0,.73,3.65,2.58,2.58,0,0,0,2.47,1.32,2.55,2.55,0,0,0,2.43-1.33,7.58,7.58,0,0,0,.73-3.64v-.36a7.61,7.61,0,0,0-.73-3.62,2.57,2.57,0,0,0-2.46-1.36,2.54,2.54,0,0,0-2.44,1.37,7.69,7.69,0,0,0-.73,3.61Z"/><path class="cls-2" d="M95.76,19l.34,2,.1,0,.38-2L99,8.17h6.07l-6,18.5H93.21l-6-18.5h6.09Z"/><path class="cls-2" d="M112.89,3.88h-5.79V0h5.79Zm0,22.79h-5.79V8.17h5.79Z"/><path class="cls-2" d="M124.87,27a8.57,8.57,0,0,1-6.52-2.56A9,9,0,0,1,115.92,18v-.65a10.46,10.46,0,0,1,2.21-6.9,8.86,8.86,0,0,1,12.23-.4,8.54,8.54,0,0,1,2.14,6.12v3H121.93l0,.1a3.77,3.77,0,0,0,1.16,2.33,3.64,3.64,0,0,0,2.6.91,10.78,10.78,0,0,0,2.62-.26,19.25,19.25,0,0,0,2.49-.89L132.14,25A10.5,10.5,0,0,1,129,26.44,14,14,0,0,1,124.87,27Zm-.41-14.75a2.14,2.14,0,0,0-1.87.89,4.86,4.86,0,0,0-.76,2.38l.05.09h5v-.44a3.47,3.47,0,0,0-.58-2.15A2.15,2.15,0,0,0,124.46,12.27Z"/><path class="cls-2" d="M143.67,16.31V27.56h-2V2.69h8.43a9.46,9.46,0,0,1,6.14,1.75,6.24,6.24,0,0,1,2.14,5.12,5.85,5.85,0,0,1-1.15,3.55A6.49,6.49,0,0,1,154,15.39a5.42,5.42,0,0,1,3.32,2.08,6.53,6.53,0,0,1,1,3.75v2.34a7.33,7.33,0,0,0,.27,2.09,3.24,3.24,0,0,0,.91,1.5v.41H157.4a3.41,3.41,0,0,1-.89-1.73,10.23,10.23,0,0,1-.26-2.31V21.25a4.61,4.61,0,0,0-1.48-3.62,6,6,0,0,0-4.13-1.32Zm0-1.74h6.14q3.37,0,4.92-1.36a4.62,4.62,0,0,0,1.56-3.67,4.71,4.71,0,0,0-1.55-3.79,7,7,0,0,0-4.67-1.32h-6.39Z"/><path class="cls-2" d="M171.11,27.92a7.42,7.42,0,0,1-5.77-2.56,9.36,9.36,0,0,1-2.3-6.5v-.94a9.65,9.65,0,0,1,2.28-6.58,7.08,7.08,0,0,1,5.53-2.62,6.85,6.85,0,0,1,5.35,2.15,8.23,8.23,0,0,1,1.95,5.74v1.74H165.09v.49a8.16,8.16,0,0,0,1.66,5.22,5.29,5.29,0,0,0,4.36,2.1,9,9,0,0,0,3.26-.53,6.42,6.42,0,0,0,2.31-1.52l.87,1.4a7.42,7.42,0,0,1-2.64,1.75A10.11,10.11,0,0,1,171.11,27.92Zm-.26-17.45A4.9,4.9,0,0,0,167,12.2a7.43,7.43,0,0,0-1.79,4.34l0,.09h10.84v-.51a5.89,5.89,0,0,0-1.42-4A4.85,4.85,0,0,0,170.85,10.47Z"/><path class="cls-2" d="M187.25,22.93l.6,2.17h.1l.65-2.17,5-13.86h2.12l-7,18.5h-1.64l-7-18.5h2.12Z"/><path class="cls-2" d="M201.4,3.76h-2V.89h2Zm0,23.79h-2V9.06h2Z"/><path class="cls-2" d="M214,27.92a7.42,7.42,0,0,1-5.77-2.56,9.37,9.37,0,0,1-2.3-6.5v-.94a9.65,9.65,0,0,1,2.28-6.58,7.08,7.08,0,0,1,5.53-2.62,6.85,6.85,0,0,1,5.35,2.15A8.23,8.23,0,0,1,221,16.62v1.74H208v.49a8.16,8.16,0,0,0,1.66,5.22,5.29,5.29,0,0,0,4.36,2.1,8.94,8.94,0,0,0,3.26-.53,6.41,6.41,0,0,0,2.31-1.52l.87,1.4a7.42,7.42,0,0,1-2.64,1.75A10.11,10.11,0,0,1,214,27.92Zm-.26-17.45a4.9,4.9,0,0,0-3.81,1.73,7.43,7.43,0,0,0-1.79,4.34l0,.09H219v-.51a5.89,5.89,0,0,0-1.42-4A4.85,4.85,0,0,0,213.74,10.47Z"/><path class="cls-2" d="M229.08,21.56l.7,3.3h.1l.87-3.3,3.93-12.5h1.76l3.93,12.5.89,3.38h.1l.77-3.38,3.37-12.5h2.12l-5.38,18.5h-1.74l-4.1-12.65-.8-3.2h-.1l-.82,3.2-4,12.65h-1.76L223.5,9.06h2.12Z"/><path class="cls-2" d="M262.67,22.85a3,3,0,0,0-1.07-2.27A8.69,8.69,0,0,0,257.74,19a12.94,12.94,0,0,1-4.9-1.9,3.92,3.92,0,0,1-1.58-3.33,4.47,4.47,0,0,1,1.79-3.58,7.23,7.23,0,0,1,4.73-1.46,7.43,7.43,0,0,1,5,1.55,4.63,4.63,0,0,1,1.74,3.87l0,.1h-1.9a3.42,3.42,0,0,0-1.29-2.65,5.1,5.1,0,0,0-3.48-1.13,5,5,0,0,0-3.36,1,2.89,2.89,0,0,0-1.12,2.25,2.67,2.67,0,0,0,1,2.11,9.43,9.43,0,0,0,3.85,1.46,12.58,12.58,0,0,1,4.94,2,4.17,4.17,0,0,1,1.64,3.47,4.5,4.5,0,0,1-1.87,3.75,9.39,9.39,0,0,1-10.24-.18,4.55,4.55,0,0,1-1.82-3.83l0-.1h1.88a3.37,3.37,0,0,0,1.63,2.89,6.83,6.83,0,0,0,3.56.9,5.68,5.68,0,0,0,3.5-1A2.88,2.88,0,0,0,262.67,22.85Z"/></g></g></svg>